<svg xmlns="http://www.w3.org/2000/svg" xmlns:xlink="http://www.w3.org/1999/xlink" width="1920" zoomAndPan="magnify" viewBox="0 0 1440 809.999993" height="1080" preserveAspectRatio="xMidYMid meet" version="1.0"><defs><clipPath id="4671b0bf95"><path d="M 0 326.996094 L 1439.726562 326.996094 L 1439.726562 809.996094 L 0 809.996094 Z M 0 326.996094 " clip-rule="nonzero"/></clipPath><clipPath id="5329ce5553"><path d="M 926.6875 171.554688 L 1111.1875 171.554688 L 1111.1875 384.554688 L 926.6875 384.554688 Z M 926.6875 171.554688 " clip-rule="nonzero"/></clipPath><clipPath id="437f36f767"><path d="M 81.1875 387 L 155.4375 387 L 155.4375 403.253906 L 81.1875 403.253906 Z M 81.1875 387 " clip-rule="nonzero"/></clipPath><clipPath id="8cad8843cc"><path d="M 81.1875 360 L 155.4375 360 L 155.4375 377 L 81.1875 377 Z M 81.1875 360 " clip-rule="nonzero"/></clipPath><clipPath id="33d3b5caea"><path d="M 81.1875 333 L 155.4375 333 L 155.4375 350 L 81.1875 350 Z M 81.1875 333 " clip-rule="nonzero"/></clipPath><clipPath id="2c02448f17"><path d="M 81.1875 306 L 155.4375 306 L 155.4375 323 L 81.1875 323 Z M 81.1875 306 " clip-rule="nonzero"/></clipPath><clipPath id="38e75835f9"><path d="M 81.1875 280 L 155.4375 280 L 155.4375 296 L 81.1875 296 Z M 81.1875 280 " clip-rule="nonzero"/></clipPath><clipPath id="79a37b4642"><path d="M 81.1875 253 L 155.4375 253 L 155.4375 269 L 81.1875 269 Z M 81.1875 253 " clip-rule="nonzero"/></clipPath><clipPath id="d843e2af5f"><path d="M 81.1875 226.253906 L 155.4375 226.253906 L 155.4375 242 L 81.1875 242 Z M 81.1875 226.253906 " clip-rule="nonzero"/></clipPath><clipPath id="462db28ddc"><path d="M 1284.75 573 L 1359 573 L 1359 588.550781 L 1284.75 588.550781 Z M 1284.75 573 " clip-rule="nonzero"/></clipPath><clipPath id="b16d1fff76"><path d="M 1284.75 546 L 1359 546 L 1359 562 L 1284.75 562 Z M 1284.75 546 " clip-rule="nonzero"/></clipPath><clipPath id="478e4177aa"><path d="M 1284.75 519 L 1359 519 L 1359 535 L 1284.75 535 Z M 1284.75 519 " clip-rule="nonzero"/></clipPath><clipPath id="d50f6c8651"><path d="M 1284.75 492 L 1359 492 L 1359 508 L 1284.75 508 Z M 1284.75 492 " clip-rule="nonzero"/></clipPath><clipPath id="51d9412588"><path d="M 1284.75 465 L 1359 465 L 1359 481 L 1284.75 481 Z M 1284.75 465 " clip-rule="nonzero"/></clipPath><clipPath id="cd7fbb0f1d"><path d="M 1284.75 438 L 1359 438 L 1359 454 L 1284.75 454 Z M 1284.75 438 " clip-rule="nonzero"/></clipPath><clipPath id="2978469c71"><path d="M 1284.75 411.550781 L 1359 411.550781 L 1359 428 L 1284.75 428 Z M 1284.75 411.550781 " clip-rule="nonzero"/></clipPath><clipPath id="ff05e0d6d4"><path d="M 242 649.101562 L 258 649.101562 L 258 723.351562 L 242 723.351562 Z M 242 649.101562 " clip-rule="nonzero"/></clipPath><clipPath id="e150c14c45"><path d="M 215 649.101562 L 232 649.101562 L 232 723.351562 L 215 723.351562 Z M 215 649.101562 " clip-rule="nonzero"/></clipPath><clipPath id="34f2ff50ca"><path d="M 188 649.101562 L 205 649.101562 L 205 723.351562 L 188 723.351562 Z M 188 649.101562 " clip-rule="nonzero"/></clipPath><clipPath id="6e53751f7a"><path d="M 161 649.101562 L 178 649.101562 L 178 723.351562 L 161 723.351562 Z M 161 649.101562 " clip-rule="nonzero"/></clipPath><clipPath id="1b9e334f38"><path d="M 134 649.101562 L 151 649.101562 L 151 723.351562 L 134 723.351562 Z M 134 649.101562 " clip-rule="nonzero"/></clipPath><clipPath id="e69d3fe888"><path d="M 107 649.101562 L 124 649.101562 L 124 723.351562 L 107 723.351562 Z M 107 649.101562 " clip-rule="nonzero"/></clipPath><clipPath id="a604a055ea"><path d="M 81 649.101562 L 97 649.101562 L 97 723.351562 L 81 723.351562 Z M 81 649.101562 " clip-rule="nonzero"/></clipPath><clipPath id="46da391f54"><path d="M 1343 81 L 1359.292969 81 L 1359.292969 155.25 L 1343 155.25 Z M 1343 81 " clip-rule="nonzero"/></clipPath><clipPath id="e75477b9a9"><path d="M 1316 81 L 1333 81 L 1333 155.25 L 1316 155.25 Z M 1316 81 " clip-rule="nonzero"/></clipPath><clipPath id="afa580aaa6"><path d="M 1289 81 L 1306 81 L 1306 155.25 L 1289 155.25 Z M 1289 81 " clip-rule="nonzero"/></clipPath><clipPath id="3e7b4ce7e6"><path d="M 1263 81 L 1279 81 L 1279 155.25 L 1263 155.25 Z M 1263 81 " clip-rule="nonzero"/></clipPath><clipPath id="66ac05302e"><path d="M 1236 81 L 1252 81 L 1252 155.25 L 1236 155.25 Z M 1236 81 " clip-rule="nonzero"/></clipPath><clipPath id="ee0a0dfddf"><path d="M 1209 81 L 1225 81 L 1225 155.25 L 1209 155.25 Z M 1209 81 " clip-rule="nonzero"/></clipPath><clipPath id="84917d6c25"><path d="M 1182.292969 81 L 1198 81 L 1198 155.25 L 1182.292969 155.25 Z M 1182.292969 81 " clip-rule="nonzero"/></clipPath></defs><rect x="-144" width="1728" fill="#ffffff" y="-80.999999" height="971.999992" fill-opacity="1"/><rect x="-144" width="1728" fill="#ffffff" y="-80.999999" height="971.999992" fill-opacity="1"/><rect x="-144" width="1728" fill="#000000" y="-80.999999" height="971.999992" fill-opacity="1"/><g clip-path="url(#4671b0bf95)"><path fill="#ffde59" d="M 1439.722656 326.996094 L 1439.722656 809.996094 L -807.273438 809.996094 L 1439.722656 326.996094 " fill-opacity="1" fill-rule="nonzero"/></g><g clip-path="url(#5329ce5553)"><path fill="#ffde59" d="M 1111.183594 331.304688 L 1111.183594 224.804688 L 1018.9375 171.554688 L 926.6875 224.804688 L 926.6875 331.304688 L 1018.9375 384.554688 L 1111.183594 331.304688 " fill-opacity="1" fill-rule="nonzero"/></g><g clip-path="url(#437f36f767)"><path fill="#ffde59" d="M 155.371094 387.710938 L 155.371094 403.21875 L 81.207031 403.21875 L 81.207031 387.710938 Z M 155.371094 387.710938 " fill-opacity="1" fill-rule="nonzero"/></g><g clip-path="url(#8cad8843cc)"><path fill="#ffde59" d="M 155.371094 360.800781 L 155.371094 376.308594 L 81.207031 376.308594 L 81.207031 360.800781 Z M 155.371094 360.800781 " fill-opacity="1" fill-rule="nonzero"/></g><g clip-path="url(#33d3b5caea)"><path fill="#ffde59" d="M 155.371094 333.886719 L 155.371094 349.394531 L 81.207031 349.394531 L 81.207031 333.886719 Z M 155.371094 333.886719 " fill-opacity="1" fill-rule="nonzero"/></g><g clip-path="url(#2c02448f17)"><path fill="#ffde59" d="M 155.371094 306.976562 L 155.371094 322.484375 L 81.207031 322.484375 L 81.207031 306.976562 Z M 155.371094 306.976562 " fill-opacity="1" fill-rule="nonzero"/></g><g clip-path="url(#38e75835f9)"><path fill="#ffde59" d="M 155.371094 280.0625 L 155.371094 295.570312 L 81.207031 295.570312 L 81.207031 280.0625 Z M 155.371094 280.0625 " fill-opacity="1" fill-rule="nonzero"/></g><g clip-path="url(#79a37b4642)"><path fill="#ffde59" d="M 155.371094 253.152344 L 155.371094 268.660156 L 81.207031 268.660156 L 81.207031 253.152344 Z M 155.371094 253.152344 " fill-opacity="1" fill-rule="nonzero"/></g><g clip-path="url(#d843e2af5f)"><path fill="#ffde59" d="M 155.371094 226.238281 L 155.371094 241.75 L 81.207031 241.75 L 81.207031 226.238281 Z M 155.371094 226.238281 " fill-opacity="1" fill-rule="nonzero"/></g><g clip-path="url(#462db28ddc)"><path fill="#000000" d="M 1358.933594 573.007812 L 1358.933594 588.515625 L 1284.769531 588.515625 L 1284.769531 573.007812 Z M 1358.933594 573.007812 " fill-opacity="1" fill-rule="nonzero"/></g><g clip-path="url(#b16d1fff76)"><path fill="#000000" d="M 1358.933594 546.097656 L 1358.933594 561.605469 L 1284.769531 561.605469 L 1284.769531 546.097656 Z M 1358.933594 546.097656 " fill-opacity="1" fill-rule="nonzero"/></g><g clip-path="url(#478e4177aa)"><path fill="#000000" d="M 1358.933594 519.183594 L 1358.933594 534.691406 L 1284.769531 534.691406 L 1284.769531 519.183594 Z M 1358.933594 519.183594 " fill-opacity="1" fill-rule="nonzero"/></g><g clip-path="url(#d50f6c8651)"><path fill="#000000" d="M 1358.933594 492.273438 L 1358.933594 507.78125 L 1284.769531 507.78125 L 1284.769531 492.273438 Z M 1358.933594 492.273438 " fill-opacity="1" fill-rule="nonzero"/></g><g clip-path="url(#51d9412588)"><path fill="#000000" d="M 1358.933594 465.359375 L 1358.933594 480.867188 L 1284.769531 480.867188 L 1284.769531 465.359375 Z M 1358.933594 465.359375 " fill-opacity="1" fill-rule="nonzero"/></g><g clip-path="url(#cd7fbb0f1d)"><path fill="#000000" d="M 1358.933594 438.449219 L 1358.933594 453.957031 L 1284.769531 453.957031 L 1284.769531 438.449219 Z M 1358.933594 438.449219 " fill-opacity="1" fill-rule="nonzero"/></g><g clip-path="url(#2978469c71)"><path fill="#000000" d="M 1358.933594 411.535156 L 1358.933594 427.042969 L 1284.769531 427.042969 L 1284.769531 411.535156 Z M 1358.933594 411.535156 " fill-opacity="1" fill-rule="nonzero"/></g><g clip-path="url(#ff05e0d6d4)"><path fill="#000000" d="M 242.460938 649.167969 L 257.96875 649.167969 L 257.96875 723.332031 L 242.460938 723.332031 Z M 242.460938 649.167969 " fill-opacity="1" fill-rule="nonzero"/></g><g clip-path="url(#e150c14c45)"><path fill="#000000" d="M 215.546875 649.167969 L 231.054688 649.167969 L 231.054688 723.332031 L 215.546875 723.332031 Z M 215.546875 649.167969 " fill-opacity="1" fill-rule="nonzero"/></g><g clip-path="url(#34f2ff50ca)"><path fill="#000000" d="M 188.636719 649.167969 L 204.144531 649.167969 L 204.144531 723.332031 L 188.636719 723.332031 Z M 188.636719 649.167969 " fill-opacity="1" fill-rule="nonzero"/></g><g clip-path="url(#6e53751f7a)"><path fill="#000000" d="M 161.722656 649.167969 L 177.230469 649.167969 L 177.230469 723.332031 L 161.722656 723.332031 Z M 161.722656 649.167969 " fill-opacity="1" fill-rule="nonzero"/></g><g clip-path="url(#1b9e334f38)"><path fill="#000000" d="M 134.8125 649.167969 L 150.320312 649.167969 L 150.320312 723.332031 L 134.8125 723.332031 Z M 134.8125 649.167969 " fill-opacity="1" fill-rule="nonzero"/></g><g clip-path="url(#e69d3fe888)"><path fill="#000000" d="M 107.898438 649.167969 L 123.40625 649.167969 L 123.40625 723.332031 L 107.898438 723.332031 Z M 107.898438 649.167969 " fill-opacity="1" fill-rule="nonzero"/></g><g clip-path="url(#a604a055ea)"><path fill="#000000" d="M 80.988281 649.167969 L 96.496094 649.167969 L 96.496094 723.332031 L 80.988281 723.332031 Z M 80.988281 649.167969 " fill-opacity="1" fill-rule="nonzero"/></g><g clip-path="url(#46da391f54)"><path fill="#ffde59" d="M 1343.75 81.066406 L 1359.257812 81.066406 L 1359.257812 155.230469 L 1343.75 155.230469 Z M 1343.75 81.066406 " fill-opacity="1" fill-rule="nonzero"/></g><g clip-path="url(#e75477b9a9)"><path fill="#ffde59" d="M 1316.839844 81.066406 L 1332.347656 81.066406 L 1332.347656 155.230469 L 1316.839844 155.230469 Z M 1316.839844 81.066406 " fill-opacity="1" fill-rule="nonzero"/></g><g clip-path="url(#afa580aaa6)"><path fill="#ffde59" d="M 1289.925781 81.066406 L 1305.433594 81.066406 L 1305.433594 155.230469 L 1289.925781 155.230469 Z M 1289.925781 81.066406 " fill-opacity="1" fill-rule="nonzero"/></g><g clip-path="url(#3e7b4ce7e6)"><path fill="#ffde59" d="M 1263.015625 81.066406 L 1278.523438 81.066406 L 1278.523438 155.230469 L 1263.015625 155.230469 Z M 1263.015625 81.066406 " fill-opacity="1" fill-rule="nonzero"/></g><g clip-path="url(#66ac05302e)"><path fill="#ffde59" d="M 1236.101562 81.066406 L 1251.609375 81.066406 L 1251.609375 155.230469 L 1236.101562 155.230469 Z M 1236.101562 81.066406 " fill-opacity="1" fill-rule="nonzero"/></g><g clip-path="url(#ee0a0dfddf)"><path fill="#ffde59" d="M 1209.191406 81.066406 L 1224.699219 81.066406 L 1224.699219 155.230469 L 1209.191406 155.230469 Z M 1209.191406 81.066406 " fill-opacity="1" fill-rule="nonzero"/></g><g clip-path="url(#84917d6c25)"><path fill="#ffde59" d="M 1182.277344 81.066406 L 1197.785156 81.066406 L 1197.785156 155.230469 L 1182.277344 155.230469 Z M 1182.277344 81.066406 " fill-opacity="1" fill-rule="nonzero"/></g></svg>