<svg xmlns="http://www.w3.org/2000/svg" xmlns:xlink="http://www.w3.org/1999/xlink" width="751" zoomAndPan="magnify" viewBox="0 0 563.25 307.499996" height="410" preserveAspectRatio="xMidYMid meet" version="1.0"><defs><g/><clipPath id="5e8b093d02"><path d="M 242.09375 75.183594 L 269 75.183594 L 269 150 L 242.09375 150 Z M 242.09375 75.183594 " clip-rule="nonzero"/></clipPath><clipPath id="4db7c9f40d"><path d="M 272 89 L 299 89 L 299 163.539062 L 272 163.539062 Z M 272 89 " clip-rule="nonzero"/></clipPath><clipPath id="0edc423f12"><path d="M 307 78 L 312.480469 78 L 312.480469 83 L 307 83 Z M 307 78 " clip-rule="nonzero"/></clipPath></defs><g clip-path="url(#5e8b093d02)"><path fill="#000000" d="M 242.117188 116.765625 L 242.117188 107.535156 C 243.996094 107.433594 245.414062 107.152344 246.363281 106.6875 C 247.316406 106.226562 248.140625 105.453125 248.835938 104.363281 C 249.53125 103.273438 250.007812 101.90625 250.265625 100.265625 C 250.46875 99.035156 250.574219 96.894531 250.574219 93.839844 C 250.574219 88.867188 250.804688 85.398438 251.265625 83.4375 C 251.730469 81.476562 252.566406 79.898438 253.777344 78.703125 C 254.984375 77.511719 256.75 76.570312 259.066406 75.878906 C 260.632812 75.417969 263.105469 75.183594 266.476562 75.183594 L 268.523438 75.183594 L 268.523438 84.378906 C 265.667969 84.378906 263.832031 84.539062 263.023438 84.859375 C 262.210938 85.179688 261.613281 85.667969 261.226562 86.320312 C 260.839844 86.976562 260.648438 88.097656 260.648438 89.6875 C 260.648438 91.300781 260.53125 94.367188 260.300781 98.878906 C 260.171875 101.417969 259.835938 103.476562 259.296875 105.054688 C 258.757812 106.628906 258.066406 107.933594 257.230469 108.957031 C 256.394531 109.984375 255.113281 111.046875 253.390625 112.152344 C 254.910156 113.023438 256.148438 114.042969 257.117188 115.207031 C 258.082031 116.375 258.820312 117.792969 259.335938 119.460938 C 259.851562 121.125 260.183594 123.355469 260.339844 126.152344 C 260.519531 130.410156 260.609375 133.125 260.609375 134.308594 C 260.609375 136 260.816406 137.179688 261.226562 137.84375 C 261.636719 138.511719 262.261719 139.019531 263.097656 139.363281 C 263.933594 139.710938 265.742188 139.882812 268.523438 139.882812 L 268.523438 149.117188 L 266.476562 149.117188 C 263.003906 149.117188 260.339844 148.839844 258.484375 148.289062 C 256.632812 147.738281 255.070312 146.820312 253.796875 145.539062 C 252.523438 144.257812 251.664062 142.671875 251.230469 140.789062 C 250.789062 138.902344 250.574219 135.933594 250.574219 131.882812 C 250.574219 127.164062 250.367188 124.101562 249.953125 122.691406 C 249.386719 120.636719 248.53125 119.171875 247.386719 118.285156 C 246.242188 117.402344 244.484375 116.894531 242.117188 116.765625 " fill-opacity="1" fill-rule="nonzero"/></g><path fill="#ffde59" d="M 300.683594 94.335938 L 294.640625 94.335938 L 294.640625 88.316406 L 300.683594 88.316406 L 300.683594 94.335938 " fill-opacity="1" fill-rule="nonzero"/><path fill="#ffde59" d="M 299.257812 106.378906 L 294.640625 106.378906 L 294.640625 101.777344 L 299.257812 101.777344 L 299.257812 106.378906 " fill-opacity="1" fill-rule="nonzero"/><g clip-path="url(#4db7c9f40d)"><path fill="#ffde59" d="M 281.679688 98.9375 L 281.679688 94.335938 L 286.296875 94.335938 L 286.296875 98.9375 Z M 293.421875 120.441406 C 292.261719 119.558594 291.402344 118.089844 290.835938 116.039062 C 290.523438 114.878906 290.339844 112.664062 290.277344 109.386719 L 286.296875 109.386719 L 286.296875 103.367188 L 290.191406 103.367188 C 290.09375 101.046875 289.890625 99.238281 289.582031 97.941406 C 289.128906 96.054688 288.273438 94.464844 287.015625 93.171875 C 285.753906 91.875 284.195312 90.957031 282.34375 90.421875 C 280.488281 89.882812 277.828125 89.613281 274.351562 89.613281 L 272.304688 89.613281 L 272.304688 98.804688 C 275.214844 98.804688 277.085938 98.980469 277.921875 99.324219 C 278.757812 99.671875 279.335938 100.164062 279.660156 100.804688 C 279.980469 101.445312 280.15625 102.730469 280.179688 104.652344 C 280.308594 110.753906 280.515625 114.703125 280.796875 116.5 C 281.234375 119.117188 282.058594 121.269531 283.269531 122.960938 C 284.144531 124.140625 285.535156 125.347656 287.4375 126.578125 C 285.972656 127.421875 284.765625 128.40625 283.828125 129.519531 C 282.890625 130.636719 282.136719 131.996094 281.570312 133.597656 C 281.003906 135.199219 280.65625 137.335938 280.527344 140 C 280.320312 144.414062 280.210938 147.398438 280.199219 148.964844 C 280.1875 150.527344 279.980469 151.636719 279.582031 152.292969 C 279.183594 152.945312 278.558594 153.445312 277.710938 153.792969 C 276.859375 154.136719 275.058594 154.3125 272.304688 154.3125 L 272.304688 163.542969 L 274.351562 163.542969 C 277.722656 163.542969 280.195312 163.3125 281.761719 162.851562 C 284.105469 162.15625 285.878906 161.214844 287.089844 160.023438 C 288.300781 158.832031 289.128906 157.246094 289.582031 155.273438 C 290.03125 153.296875 290.257812 149.824219 290.257812 144.847656 C 290.257812 141.824219 290.359375 139.695312 290.566406 138.464844 C 290.847656 136.824219 291.332031 135.457031 292.011719 134.367188 C 292.695312 133.277344 293.511719 132.5 294.464844 132.039062 C 295.414062 131.578125 296.832031 131.296875 298.710938 131.195312 L 298.710938 121.960938 C 296.34375 121.832031 294.578125 121.328125 293.421875 120.441406 " fill-opacity="1" fill-rule="nonzero"/></g><g clip-path="url(#0edc423f12)"><path fill="#ffde59" d="M 312.464844 82.644531 L 307.847656 82.644531 L 307.847656 78.042969 L 312.464844 78.042969 L 312.464844 82.644531 " fill-opacity="1" fill-rule="nonzero"/></g><path fill="#ffde59" d="M 289.316406 88.316406 L 280.699219 88.316406 L 280.699219 79.730469 L 289.316406 79.730469 L 289.316406 88.316406 " fill-opacity="1" fill-rule="nonzero"/><g fill="#ffde59" fill-opacity="1"><g transform="translate(148.012485, 202.252363)"><g><path d="M 6.445312 -20.183594 L 10.375 -20.183594 L 10.375 -22.007812 L 0.597656 -22.007812 L 0.597656 -20.183594 L 4.527344 -20.183594 L 4.527344 0 L 6.445312 0 Z M 6.445312 -20.183594 "/></g></g></g><g fill="#ffde59" fill-opacity="1"><g transform="translate(164.864613, 202.252363)"><g><path d="M 10.03125 -3.425781 L 10.722656 0 L 12.640625 0 L 7.953125 -22.007812 L 5.628906 -22.007812 L 1.195312 0 L 3.050781 0 L 4.808594 -9.117188 Z M 9.371094 -6.726562 L 5.25 -11.222656 L 6.792969 -19.210938 Z M 9.371094 -6.726562 "/></g></g></g><g fill="#ffde59" fill-opacity="1"><g transform="translate(184.514643, 202.252363)"><g><path d="M 4.464844 -22.007812 L 2.359375 -22.007812 L 2.359375 0 L 4.464844 0 C 10.03125 0 12.105469 -5.753906 12.105469 -11.320312 C 12.105469 -17.953125 9.148438 -22.007812 4.464844 -22.007812 Z M 10.125 -11.320312 C 10.125 -4.96875 8.269531 -1.886719 4.402344 -1.855469 L 4.277344 -1.855469 L 4.277344 -20.183594 L 4.652344 -20.183594 C 7.765625 -20.152344 10.125 -17.355469 10.125 -11.320312 Z M 10.125 -11.320312 "/></g></g></g><g fill="#ffde59" fill-opacity="1"><g transform="translate(203.441619, 202.252363)"><g><path d="M 11.949219 -22.007812 L 9.96875 -22.007812 L 6.382812 -14.871094 L 2.796875 -22.007812 L 0.785156 -22.007812 L 5.40625 -12.984375 L 5.40625 0 L 7.324219 0 L 7.324219 -12.984375 Z M 11.949219 -22.007812 "/></g></g></g><g fill="#ffde59" fill-opacity="1"><g transform="translate(222.054225, 202.252363)"><g><path d="M 5.691406 -26.253906 L 7.984375 -23.894531 L 9.339844 -24.585938 L 5.691406 -28.644531 L 2.042969 -24.585938 L 3.394531 -23.894531 Z M 2.421875 -22.007812 L 2.421875 0 L 9.179688 0 L 9.179688 -1.855469 L 4.339844 -1.855469 L 4.339844 -14.683594 L 7.324219 -14.683594 L 7.324219 -16.382812 L 4.339844 -16.382812 L 4.339844 -20.183594 L 9.179688 -20.183594 L 9.179688 -22.007812 Z M 2.421875 -22.007812 "/></g></g></g><g fill="#ffde59" fill-opacity="1"><g transform="translate(238.057553, 202.252363)"><g><path d="M 4.339844 -1.855469 L 4.339844 -22.007812 L 2.421875 -22.007812 L 2.421875 0 L 9.714844 0 L 9.714844 -1.855469 Z M 4.339844 -1.855469 "/></g></g></g><g fill="#ffde59" fill-opacity="1"><g transform="translate(254.186625, 202.252363)"><g><path d="M 4.339844 -1.855469 L 4.339844 -22.007812 L 2.421875 -22.007812 L 2.421875 0 L 9.714844 0 L 9.714844 -1.855469 Z M 4.339844 -1.855469 "/></g></g></g><g fill="#ffde59" fill-opacity="1"><g transform="translate(270.315701, 202.252363)"><g><path d="M 6.886719 0.3125 C 10.753906 0.3125 12.671875 -3.207031 12.671875 -11.066406 C 12.671875 -18.925781 10.753906 -22.449219 6.886719 -22.449219 C 3.050781 -22.449219 1.101562 -18.925781 1.101562 -11.066406 C 1.101562 -3.207031 3.050781 0.3125 6.886719 0.3125 Z M 6.886719 -1.507812 C 3.554688 -1.507812 3.050781 -7.167969 3.050781 -11.066406 C 3.050781 -14.964844 3.554688 -20.625 6.886719 -20.625 C 10.21875 -20.625 10.722656 -14.964844 10.722656 -11.066406 C 10.722656 -7.167969 10.21875 -1.507812 6.886719 -1.507812 Z M 6.886719 -1.507812 "/></g></g></g><g fill="#ffde59" fill-opacity="1"><g transform="translate(289.965733, 202.252363)"><g/></g></g><g fill="#ffde59" fill-opacity="1"><g transform="translate(300.561879, 202.252363)"><g><path d="M 9.402344 -15.25 L 9.871094 -15.816406 C 10.878906 -17.042969 11.570312 -17.921875 11.570312 -19.210938 C 11.570312 -20.75 10.40625 -22.007812 8.113281 -22.007812 L 2.390625 -22.007812 L 2.390625 0 L 4.496094 0 C 10.34375 0 12.734375 -4.339844 12.734375 -8.394531 C 12.734375 -11.886719 11.414062 -13.707031 9.402344 -15.25 Z M 4.308594 -20.183594 L 7.828125 -20.183594 C 9.210938 -20.183594 9.652344 -19.683594 9.652344 -18.992188 C 9.652344 -18.332031 9.273438 -17.703125 8.742188 -17.042969 L 4.308594 -11.632812 Z M 5.0625 -1.824219 L 4.308594 -1.824219 L 4.308594 -9.054688 L 8.175781 -13.738281 C 9.558594 -12.796875 10.753906 -11.289062 10.753906 -8.363281 C 10.753906 -4.054688 7.703125 -1.824219 5.0625 -1.824219 Z M 5.0625 -1.824219 "/></g></g></g><g fill="#ffde59" fill-opacity="1"><g transform="translate(319.677482, 202.252363)"><g><path d="M 10.03125 -3.425781 L 10.722656 0 L 12.640625 0 L 7.953125 -22.007812 L 5.628906 -22.007812 L 1.195312 0 L 3.050781 0 L 4.808594 -9.117188 Z M 9.371094 -6.726562 L 5.25 -11.222656 L 6.792969 -19.210938 Z M 9.371094 -6.726562 "/></g></g></g><g fill="#ffde59" fill-opacity="1"><g transform="translate(339.327514, 202.252363)"><g><path d="M 6.601562 -12.640625 C 4.9375 -14.304688 3.617188 -15.785156 3.585938 -17.984375 C 3.554688 -19.523438 4.214844 -20.5 5.375 -20.5 C 6.257812 -20.5 6.695312 -20.089844 7.324219 -18.800781 L 9.148438 -19.554688 C 8.269531 -21.570312 7.167969 -22.449219 5.375 -22.449219 C 3.300781 -22.449219 1.601562 -20.75 1.636719 -17.953125 C 1.667969 -14.964844 3.238281 -13.046875 5.34375 -11.003906 C 7.453125 -8.960938 8.300781 -7.671875 8.300781 -5.4375 C 8.300781 -4.117188 7.984375 -1.636719 5.34375 -1.636719 C 4.023438 -1.636719 3.238281 -2.011719 2.167969 -3.488281 L 0.472656 -2.546875 C 1.792969 -0.566406 3.050781 0.3125 5.25 0.3125 C 8.238281 0.3125 10.25 -2.105469 10.25 -5.660156 C 10.25 -8.742188 8.679688 -10.5625 6.601562 -12.640625 Z M 6.601562 -12.640625 "/></g></g></g><g fill="#ffde59" fill-opacity="1"><g transform="translate(356.053893, 202.252363)"><g><path d="M 6.445312 -20.183594 L 10.375 -20.183594 L 10.375 -22.007812 L 0.597656 -22.007812 L 0.597656 -20.183594 L 4.527344 -20.183594 L 4.527344 0 L 6.445312 0 Z M 6.445312 -20.183594 "/></g></g></g><g fill="#ffde59" fill-opacity="1"><g transform="translate(372.906022, 202.252363)"><g><path d="M 6.886719 0.3125 C 10.753906 0.3125 12.671875 -3.207031 12.671875 -11.066406 C 12.671875 -18.925781 10.753906 -22.449219 6.886719 -22.449219 C 3.050781 -22.449219 1.101562 -18.925781 1.101562 -11.066406 C 1.101562 -3.207031 3.050781 0.3125 6.886719 0.3125 Z M 6.886719 -1.507812 C 3.554688 -1.507812 3.050781 -7.167969 3.050781 -11.066406 C 3.050781 -14.964844 3.554688 -20.625 6.886719 -20.625 C 10.21875 -20.625 10.722656 -14.964844 10.722656 -11.066406 C 10.722656 -7.167969 10.21875 -1.507812 6.886719 -1.507812 Z M 6.886719 -1.507812 "/></g></g></g><g fill="#ffde59" fill-opacity="1"><g transform="translate(392.556053, 202.252363)"><g><path d="M 6.601562 -12.640625 C 4.9375 -14.304688 3.617188 -15.785156 3.585938 -17.984375 C 3.554688 -19.523438 4.214844 -20.5 5.375 -20.5 C 6.257812 -20.5 6.695312 -20.089844 7.324219 -18.800781 L 9.148438 -19.554688 C 8.269531 -21.570312 7.167969 -22.449219 5.375 -22.449219 C 3.300781 -22.449219 1.601562 -20.75 1.636719 -17.953125 C 1.667969 -14.964844 3.238281 -13.046875 5.34375 -11.003906 C 7.453125 -8.960938 8.300781 -7.671875 8.300781 -5.4375 C 8.300781 -4.117188 7.984375 -1.636719 5.34375 -1.636719 C 4.023438 -1.636719 3.238281 -2.011719 2.167969 -3.488281 L 0.472656 -2.546875 C 1.792969 -0.566406 3.050781 0.3125 5.25 0.3125 C 8.238281 0.3125 10.25 -2.105469 10.25 -5.660156 C 10.25 -8.742188 8.679688 -10.5625 6.601562 -12.640625 Z M 6.601562 -12.640625 "/></g></g></g><g fill="#ffde59" fill-opacity="1"><g transform="translate(409.279057, 202.252363)"><g/></g></g><g fill="#ffde59" fill-opacity="1"><g transform="translate(152.842719, 227.976052)"><g><path d="M 3.21875 0.125 C 2.65625 0.125 2.164062 0.0234375 1.75 -0.171875 C 1.34375 -0.367188 1.023438 -0.648438 0.796875 -1.015625 C 0.578125 -1.378906 0.46875 -1.800781 0.46875 -2.28125 L 1.421875 -2.28125 C 1.421875 -1.976562 1.488281 -1.703125 1.625 -1.453125 C 1.769531 -1.203125 1.972656 -1.003906 2.234375 -0.859375 C 2.492188 -0.710938 2.820312 -0.640625 3.21875 -0.640625 C 3.726562 -0.640625 4.125 -0.757812 4.40625 -1 C 4.6875 -1.25 4.828125 -1.554688 4.828125 -1.921875 C 4.828125 -2.222656 4.757812 -2.46875 4.625 -2.65625 C 4.5 -2.84375 4.328125 -2.992188 4.109375 -3.109375 C 3.890625 -3.222656 3.632812 -3.320312 3.34375 -3.40625 C 3.0625 -3.5 2.765625 -3.597656 2.453125 -3.703125 C 1.867188 -3.898438 1.4375 -4.148438 1.15625 -4.453125 C 0.875 -4.753906 0.734375 -5.144531 0.734375 -5.625 C 0.722656 -6.03125 0.816406 -6.390625 1.015625 -6.703125 C 1.210938 -7.015625 1.488281 -7.257812 1.84375 -7.4375 C 2.195312 -7.613281 2.625 -7.703125 3.125 -7.703125 C 3.601562 -7.703125 4.019531 -7.613281 4.375 -7.4375 C 4.738281 -7.257812 5.019531 -7.007812 5.21875 -6.6875 C 5.414062 -6.375 5.515625 -6.015625 5.515625 -5.609375 L 4.5625 -5.609375 C 4.5625 -5.816406 4.507812 -6.023438 4.40625 -6.234375 C 4.300781 -6.441406 4.132812 -6.609375 3.90625 -6.734375 C 3.6875 -6.867188 3.414062 -6.9375 3.09375 -6.9375 C 2.675781 -6.9375 2.332031 -6.828125 2.0625 -6.609375 C 1.800781 -6.398438 1.671875 -6.101562 1.671875 -5.71875 C 1.671875 -5.394531 1.765625 -5.144531 1.953125 -4.96875 C 2.140625 -4.789062 2.398438 -4.644531 2.734375 -4.53125 C 3.066406 -4.425781 3.445312 -4.300781 3.875 -4.15625 C 4.238281 -4.03125 4.5625 -3.878906 4.84375 -3.703125 C 5.132812 -3.523438 5.359375 -3.300781 5.515625 -3.03125 C 5.679688 -2.757812 5.765625 -2.410156 5.765625 -1.984375 C 5.765625 -1.617188 5.671875 -1.273438 5.484375 -0.953125 C 5.296875 -0.628906 5.015625 -0.367188 4.640625 -0.171875 C 4.265625 0.0234375 3.789062 0.125 3.21875 0.125 Z M 3.21875 0.125 "/></g></g></g><g fill="#ffde59" fill-opacity="1"><g transform="translate(167.761225, 227.976052)"><g><path d="M 4.25 0.125 C 3.5 0.125 2.84375 -0.0351562 2.28125 -0.359375 C 1.726562 -0.691406 1.296875 -1.148438 0.984375 -1.734375 C 0.671875 -2.328125 0.515625 -3.015625 0.515625 -3.796875 C 0.515625 -4.566406 0.671875 -5.242188 0.984375 -5.828125 C 1.296875 -6.421875 1.726562 -6.878906 2.28125 -7.203125 C 2.84375 -7.535156 3.5 -7.703125 4.25 -7.703125 C 5 -7.703125 5.648438 -7.535156 6.203125 -7.203125 C 6.765625 -6.878906 7.203125 -6.421875 7.515625 -5.828125 C 7.828125 -5.242188 7.984375 -4.566406 7.984375 -3.796875 C 7.984375 -3.015625 7.828125 -2.328125 7.515625 -1.734375 C 7.203125 -1.148438 6.765625 -0.691406 6.203125 -0.359375 C 5.648438 -0.0351562 5 0.125 4.25 0.125 Z M 4.25 -0.671875 C 4.800781 -0.671875 5.285156 -0.796875 5.703125 -1.046875 C 6.128906 -1.296875 6.457031 -1.648438 6.6875 -2.109375 C 6.925781 -2.578125 7.046875 -3.140625 7.046875 -3.796875 C 7.046875 -4.441406 6.925781 -4.992188 6.6875 -5.453125 C 6.457031 -5.921875 6.128906 -6.273438 5.703125 -6.515625 C 5.285156 -6.765625 4.800781 -6.890625 4.25 -6.890625 C 3.6875 -6.890625 3.191406 -6.765625 2.765625 -6.515625 C 2.347656 -6.273438 2.019531 -5.921875 1.78125 -5.453125 C 1.550781 -4.992188 1.4375 -4.441406 1.4375 -3.796875 C 1.4375 -3.140625 1.550781 -2.578125 1.78125 -2.109375 C 2.019531 -1.648438 2.347656 -1.296875 2.765625 -1.046875 C 3.191406 -0.796875 3.6875 -0.671875 4.25 -0.671875 Z M 4.25 -0.671875 "/></g></g></g><g fill="#ffde59" fill-opacity="1"><g transform="translate(184.909124, 227.976052)"><g><path d="M 0.796875 0 L 0.796875 -7.578125 L 5.40625 -7.578125 L 5.40625 -6.828125 L 1.703125 -6.828125 L 1.703125 -4.171875 L 4.859375 -4.171875 L 4.859375 -3.4375 L 1.703125 -3.4375 L 1.703125 0 Z M 0.796875 0 "/></g></g></g><g fill="#ffde59" fill-opacity="1"><g transform="translate(199.351449, 227.976052)"><g><path d="M 2.578125 0 L 2.578125 -6.828125 L 0.3125 -6.828125 L 0.3125 -7.578125 L 5.75 -7.578125 L 5.75 -6.828125 L 3.484375 -6.828125 L 3.484375 0 Z M 2.578125 0 "/></g></g></g><g fill="#ffde59" fill-opacity="1"><g transform="translate(214.075162, 227.976052)"><g><path d="M 2.359375 0.015625 L 0.28125 -7.578125 L 1.25 -7.578125 L 2.890625 -1.078125 L 4.75 -7.578125 L 5.765625 -7.578125 L 7.5625 -1.078125 L 9.21875 -7.578125 L 10.203125 -7.578125 L 8.078125 0 L 7.03125 0 L 5.234375 -6.265625 L 3.375 0 Z M 2.359375 0.015625 "/></g></g></g><g fill="#ffde59" fill-opacity="1"><g transform="translate(233.20354, 227.976052)"><g><path d="M 0.328125 0 L 3.125 -7.578125 L 4.078125 -7.578125 L 6.859375 0 L 5.90625 0 L 5.203125 -1.953125 L 1.984375 -1.953125 L 1.28125 0 Z M 2.25 -2.6875 L 4.9375 -2.6875 L 3.59375 -6.4375 Z M 2.25 -2.6875 "/></g></g></g><g fill="#ffde59" fill-opacity="1"><g transform="translate(249.052772, 227.976052)"><g><path d="M 0.796875 0 L 0.796875 -7.578125 L 3.25 -7.578125 C 3.84375 -7.578125 4.328125 -7.476562 4.703125 -7.28125 C 5.078125 -7.09375 5.351562 -6.828125 5.53125 -6.484375 C 5.707031 -6.148438 5.796875 -5.773438 5.796875 -5.359375 C 5.796875 -4.878906 5.664062 -4.445312 5.40625 -4.0625 C 5.15625 -3.6875 4.757812 -3.421875 4.21875 -3.265625 L 5.875 0 L 4.8125 0 L 3.265625 -3.125 L 1.703125 -3.125 L 1.703125 0 Z M 1.703125 -3.84375 L 3.1875 -3.84375 C 3.769531 -3.84375 4.191406 -3.984375 4.453125 -4.265625 C 4.722656 -4.546875 4.859375 -4.90625 4.859375 -5.34375 C 4.859375 -5.789062 4.726562 -6.144531 4.46875 -6.40625 C 4.207031 -6.675781 3.773438 -6.8125 3.171875 -6.8125 L 1.703125 -6.8125 Z M 1.703125 -3.84375 "/></g></g></g><g fill="#ffde59" fill-opacity="1"><g transform="translate(264.133615, 227.976052)"><g><path d="M 0.796875 0 L 0.796875 -7.578125 L 5.484375 -7.578125 L 5.484375 -6.828125 L 1.703125 -6.828125 L 1.703125 -4.1875 L 5.171875 -4.1875 L 5.171875 -3.453125 L 1.703125 -3.453125 L 1.703125 -0.75 L 5.484375 -0.75 L 5.484375 0 Z M 0.796875 0 "/></g></g></g><g fill="#ffde59" fill-opacity="1"><g transform="translate(278.900622, 227.976052)"><g/></g></g><g fill="#ffde59" fill-opacity="1"><g transform="translate(290.431764, 227.976052)"><g><path d="M 0.796875 0 L 0.796875 -7.578125 L 5.484375 -7.578125 L 5.484375 -6.828125 L 1.703125 -6.828125 L 1.703125 -4.1875 L 5.171875 -4.1875 L 5.171875 -3.453125 L 1.703125 -3.453125 L 1.703125 -0.75 L 5.484375 -0.75 L 5.484375 0 Z M 0.796875 0 "/></g></g></g><g fill="#ffde59" fill-opacity="1"><g transform="translate(305.198771, 227.976052)"><g><path d="M 0.796875 0 L 0.796875 -7.578125 L 1.703125 -7.578125 L 5.75 -1.5 L 5.75 -7.578125 L 6.65625 -7.578125 L 6.65625 0 L 5.75 0 L 1.703125 -6.078125 L 1.703125 0 Z M 0.796875 0 "/></g></g></g><g fill="#ffde59" fill-opacity="1"><g transform="translate(321.318559, 227.976052)"><g><path d="M 4.0625 0.125 C 3.351562 0.125 2.726562 -0.0351562 2.1875 -0.359375 C 1.65625 -0.691406 1.242188 -1.148438 0.953125 -1.734375 C 0.660156 -2.328125 0.515625 -3.007812 0.515625 -3.78125 C 0.515625 -4.550781 0.660156 -5.234375 0.953125 -5.828125 C 1.253906 -6.421875 1.679688 -6.878906 2.234375 -7.203125 C 2.785156 -7.535156 3.4375 -7.703125 4.1875 -7.703125 C 5.039062 -7.703125 5.75 -7.492188 6.3125 -7.078125 C 6.882812 -6.671875 7.253906 -6.109375 7.421875 -5.390625 L 6.359375 -5.390625 C 6.265625 -5.847656 6.023438 -6.207031 5.640625 -6.46875 C 5.265625 -6.738281 4.78125 -6.875 4.1875 -6.875 C 3.632812 -6.875 3.148438 -6.75 2.734375 -6.5 C 2.328125 -6.25 2.007812 -5.894531 1.78125 -5.4375 C 1.550781 -4.976562 1.4375 -4.425781 1.4375 -3.78125 C 1.4375 -3.132812 1.546875 -2.578125 1.765625 -2.109375 C 1.992188 -1.648438 2.304688 -1.296875 2.703125 -1.046875 C 3.097656 -0.804688 3.5625 -0.6875 4.09375 -0.6875 C 4.90625 -0.6875 5.515625 -0.921875 5.921875 -1.390625 C 6.335938 -1.859375 6.570312 -2.503906 6.625 -3.328125 L 4.4375 -3.328125 L 4.4375 -4.046875 L 7.5625 -4.046875 L 7.5625 0 L 6.71875 0 L 6.640625 -1.25 C 6.367188 -0.800781 6.035156 -0.457031 5.640625 -0.21875 C 5.242188 0.0078125 4.71875 0.125 4.0625 0.125 Z M 4.0625 0.125 "/></g></g></g><g fill="#ffde59" fill-opacity="1"><g transform="translate(338.174264, 227.976052)"><g><path d="M 0.796875 0 L 0.796875 -7.578125 L 1.703125 -7.578125 L 1.703125 0 Z M 0.796875 0 "/></g></g></g><g fill="#ffde59" fill-opacity="1"><g transform="translate(349.348267, 227.976052)"><g><path d="M 0.796875 0 L 0.796875 -7.578125 L 1.703125 -7.578125 L 5.75 -1.5 L 5.75 -7.578125 L 6.65625 -7.578125 L 6.65625 0 L 5.75 0 L 1.703125 -6.078125 L 1.703125 0 Z M 0.796875 0 "/></g></g></g><g fill="#ffde59" fill-opacity="1"><g transform="translate(365.468044, 227.976052)"><g><path d="M 0.796875 0 L 0.796875 -7.578125 L 5.484375 -7.578125 L 5.484375 -6.828125 L 1.703125 -6.828125 L 1.703125 -4.1875 L 5.171875 -4.1875 L 5.171875 -3.453125 L 1.703125 -3.453125 L 1.703125 -0.75 L 5.484375 -0.75 L 5.484375 0 Z M 0.796875 0 "/></g></g></g><g fill="#ffde59" fill-opacity="1"><g transform="translate(380.23504, 227.976052)"><g><path d="M 0.796875 0 L 0.796875 -7.578125 L 5.484375 -7.578125 L 5.484375 -6.828125 L 1.703125 -6.828125 L 1.703125 -4.1875 L 5.171875 -4.1875 L 5.171875 -3.453125 L 1.703125 -3.453125 L 1.703125 -0.75 L 5.484375 -0.75 L 5.484375 0 Z M 0.796875 0 "/></g></g></g><g fill="#ffde59" fill-opacity="1"><g transform="translate(395.002036, 227.976052)"><g><path d="M 0.796875 0 L 0.796875 -7.578125 L 3.25 -7.578125 C 3.84375 -7.578125 4.328125 -7.476562 4.703125 -7.28125 C 5.078125 -7.09375 5.351562 -6.828125 5.53125 -6.484375 C 5.707031 -6.148438 5.796875 -5.773438 5.796875 -5.359375 C 5.796875 -4.878906 5.664062 -4.445312 5.40625 -4.0625 C 5.15625 -3.6875 4.757812 -3.421875 4.21875 -3.265625 L 5.875 0 L 4.8125 0 L 3.265625 -3.125 L 1.703125 -3.125 L 1.703125 0 Z M 1.703125 -3.84375 L 3.1875 -3.84375 C 3.769531 -3.84375 4.191406 -3.984375 4.453125 -4.265625 C 4.722656 -4.546875 4.859375 -4.90625 4.859375 -5.34375 C 4.859375 -5.789062 4.726562 -6.144531 4.46875 -6.40625 C 4.207031 -6.675781 3.773438 -6.8125 3.171875 -6.8125 L 1.703125 -6.8125 Z M 1.703125 -3.84375 "/></g></g></g></svg>